# AST/ASF file generated using VICON BodyLanguage
# -----------------------------------------------
:version 1.10
:name VICON
:units
  mass 1.0
  length 0.45
  angle deg
:documentation
   .ast/.asf automatically generated from VICON data using
   VICON BodyBuilder and BodyLanguage model FoxedUp or BRILLIANT.MOD
:root
   order TX TY TZ RX RY RZ
   axis XYZ
   position 0 0 0  
   orientation 0 0 0 
:bonedata
  begin
     id 1 
     name lhipjoint
     direction 0.606768 -0.715223 0.346827 
     length 2.41543 
     axis 0 0 0  XYZ
  end
  begin
     id 2 
     name lfemur
     direction 0.34202 -0.939693 0  
     length 7.2778  
     axis 0 0 20  XYZ
    dof rx ry rz
    limits (-160.0 20.0)
           (-70.0 70.0)
           (-60.0 70.0)
  end
  begin
     id 3 
     name ltibia
     direction 0.34202 -0.939693 0   
     length 7.61811   
     axis 0 0 20   XYZ
    dof rx
    limits (-10.0 170.0)
  end
  begin
     id 4 
     name lfoot
     direction 0.0823924 -0.226371 0.97055   
     length 2.33618   
     axis -90 7.62852e-016 20   XYZ
    dof rx rz
    limits (-45.0 90.0)
           (-70.0 20.0)
  end
  begin
     id 5 
     name ltoes
     direction 1.53554e-011 -4.21934e-011 1   
     length 1.17015   
     axis -90 7.62852e-016 20   XYZ
    dof rx
    limits (-90.0 20.0)
  end
  begin
     id 6 
     name rhipjoint
     direction -0.6077 -0.714582 0.346516   
     length 2.4176  
     axis 0 0 0  XYZ 
  end
  begin
     id 7 
     name rfemur
     direction -0.34202 -0.939693 0   
     length 7.28127   
     axis 0 0 -20   XYZ
    dof rx ry rz
    limits (-160.0 20.0)
           (-70.0 70.0)
           (-70.0 60.0)
  end
  begin
     id 8 
     name rtibia
     direction -0.34202 -0.939693 0   
     length 7.77648   
     axis 0 0 -20   XYZ
    dof rx
    limits (-10.0 170.0)
 end
 begin
     id 9 
     name rfoot
     direction -0.0809463 -0.222398 0.97159   
     length 2.37533  
     axis -90 -7.62852e-016 -20   XYZ
    dof rx rz
    limits (-45.0 90.0)
           (-20.0 70.0)
  end
  begin
     id 10 
     name rtoes
     direction -1.53568e-011 -4.21714e-011 1   
     length 1.18972   
     axis -90 -7.62852e-016 -20   XYZ
    dof rx
    limits (-90.0 20.0)
  end
  begin
     id 11 
     name lowerback
     direction 0.010968 0.991932 -0.126297   
     length 2.21698   
     axis 0 0 0   XYZ
    dof rx ry rz
    limits (-20.0 45.0)
           (-30.0 30.0)
           (-30.0 30.0)
  end
  begin
     id 12 
     name upperback
     direction 0.0167007 0.997503 -0.0686276   
     length 2.22371   
     axis 0 0 0   XYZ
    dof rx ry rz
    limits (-20.0 45.0)
           (-30.0 30.0)
           (-30.0 30.0)
  end
  begin
     id 13 
     name thorax
     direction 0.0111721 0.999885 -0.0102878   
     length 2.25242   
     axis 0 0 0   XYZ
    dof rx ry rz
    limits (-20.0 45.0)
           (-30.0 30.0)
           (-30.0 30.0)
  end
  begin
     id 14 
     name lowerneck
     direction -0.0120265 0.990428 0.137508   
     length 1.57674   
     axis 0 0 0   XYZ
    dof rx ry rz
    limits (-20.0 45.0)
           (-30.0 30.0)
           (-30.0 30.0)
  end
  begin
     id 15 
     name upperneck
     direction 0.0175669 0.998907 0.0433089   
     length 1.5618   
     axis 0 0 0   XYZ
    dof rx ry rz
    limits (-20.0 45.0)
           (-30.0 30.0)
           (-30.0 30.0)
  end
  begin
     id 16
     name head
     direction 0.00754609 0.99997 0.00185367  
     length 1.60579  
     axis 0 0 0   XYZ
    dof rx ry rz
    limits (-20.0 45.0)
           (-30.0 30.0)
           (-30.0 30.0)
  end
  begin
     id 17 
     name lclavicle
     direction 0.885866 0.429166 -0.176231  
     length 3.44967  
     axis 0 0 0   XYZ
    dof ry rz
    limits (-20.0 10.0)
           (0.0 20.0)
  end
  begin
     id 18 
     name lhumerus
     direction 1 -4.48973e-011 -1.90255e-027   
     length 5.20607   
     axis 180 -30 -90   XYZ
    dof rx ry rz
    limits (-60.0 90.0)
           (-90.0 90.0)
           (-90.0 90.0)
  end
  begin
     id 19
     name lradius
     direction 1 -4.48956e-011 9.87925e-027   
     length 3.39961   
     axis 180 -30 -90   XYZ
    dof rx
    limits (-10.0 170.0)
  end
  begin
     id 20
     name lwrist
     direction 1 -4.48985e-011 1.73247e-026   
     length 1.6998   
     axis -9.60847e-015 90 90   XYZ
    dof ry
    limits (-180.0 0.0)
 end
  begin
     id 21 
     name lhand
     direction 1 -4.48798e-011 3.46119e-026   
     length 0.519693   
     axis -2.21073e-014 90 90   XYZ
    dof rx rz
    limits (-90.0 90.0)
           (-45.0 45.0)
  end
  begin
     id 22 
     name lfingers
     direction 1 -4.48938e-011 6.92797e-026   
     length 0.41899   
     axis -4.42155e-014 90 90   XYZ
    dof rx
    limits (0.0 90.0)
  end
  begin
     id 23
     name lthumb
     direction 0.707107 -6.34952e-011 0.707107   
     length 0.601588   
     axis -90 45 6.0103e-014   XYZ
    dof rx rz
    limits (-45.0 45.0)
           (-45.0 45.0)
  end
  begin
     id 24 
     name rclavicle
     direction -0.866736 0.456792 -0.200276   
     length 3.45032  
     axis 0 0 0   XYZ 
    dof ry rz
    limits (-10.0 20.0)
           (-20.0 0.0)
  end
  begin
     id 25 
     name rhumerus
     direction -1 -4.4897e-011 8.65094e-028  
     length 5.32214   
     axis 180 30 90   XYZ
    dof rx ry rz
    limits (-90.0 60.0)
           (-90.0 90.0)
           (-90.0 90.0)
  end
  begin
     id 26 
     name rradius
     direction -1 -4.48987e-011 1.08427e-026   
     length 3.51208   
     axis 180 30 90   XYZ
    dof rx
    limits (-10.0 170.0)
  end
  begin
     id 27 
     name rwrist
     direction -1 -4.48961e-011 1.73222e-026   
     length 1.75604   
     axis -9.60847e-015 -90 -90   XYZ
    dof ry
    limits (-180.0 0.0)
  end
  begin
     id 28
     name rhand
     direction -1 -4.48895e-011 3.46314e-026   
     length 0.586681   
     axis -2.21073e-014 -90 -90   XYZ
    dof rx rz
    limits (-90.0 90.0)
           (-45.0 45.0)
  end
  begin
     id 29
     name rfingers
     direction -1 -4.48968e-011 6.92916e-026   
     length 0.472997   
     axis -4.42155e-014 -90 -90   XYZ
    dof rx
    limits (0.0 90.0)
  end
  begin
     id 30
     name rthumb
     direction -0.707107 -6.34848e-011 0.707107   
     length 0.679133   
     axis -90 -45 -6.0103e-014   XYZ
    dof rx rz
    limits (-45.0 45.0)
           (-45.0 45.0)
  end
:hierarchy
  begin
    root lhipjoint rhipjoint lowerback
    lhipjoint lfemur
    lfemur ltibia
    ltibia lfoot
    lfoot ltoes
    rhipjoint rfemur
    rfemur rtibia
    rtibia rfoot
    rfoot rtoes
    lowerback upperback
    upperback thorax
    thorax lowerneck lclavicle rclavicle
    lowerneck upperneck
    upperneck head
    lclavicle lhumerus
    lhumerus lradius
    lradius lwrist
    lwrist lhand lthumb
    lhand lfingers
    rclavicle rhumerus
    rhumerus rradius
    rradius rwrist
    rwrist rhand rthumb
    rhand rfingers
  end

#!OML:ASF H:\Dans Jumps\Project 1\Capture day 1\Session 1\subject.ASF
:FULLY-SPECIFIED
:DEGREES
45
root 0.550121 17.6529 -14.0585 6.55591 -0.342298 -1.05673
lowerback -4.944 -0.432371 -0.163607
upperback 3.12449 -0.640402 1.32993
thorax 6.04032 -0.35335 1.41123
lowerneck -12.2879 0.496297 -2.05951
upperneck 36.0545 1.08419 0.627294
head 14.4223 0.266484 0.79071
rclavicle 2.6339e-015 -1.98785e-016
rhumerus -22.9844 -10.3493 -84.3872
rradius 24.3404
rwrist 32.9469
rhand -19.3498 -26.4285
rfingers 7.12502
rthumb 6.96749 -56.2939
lclavicle 2.6339e-015 -1.98785e-016
lhumerus -19.9241 -10.1721 92.2208
lradius 20.9504
lwrist 4.0818
lhand -25.015 -4.06838
lfingers 7.12502
lthumb 1.49708 25.9061
rfemur -11.3149 -3.40613 19.1362
rtibia 17.981
rfoot -12.2145 -3.09142
rtoes 12.3426
lfemur -8.38176 5.79926 -17.6372
ltibia 13.5098
lfoot -9.13801 5.88696
ltoes 1.03624
46
root 0.549246 17.6528 -14.0586 6.54949 -0.32683 -1.06098
lowerback -4.94812 -0.436262 -0.163968
upperback 3.12351 -0.645812 1.33386
thorax 6.04186 -0.356127 1.41496
lowerneck -12.2876 0.496868 -2.07675
upperneck 36.0598 1.08582 0.639028
head 14.4244 0.266396 0.798887
rclavicle 4.91992e-015 -1.13307e-014
rhumerus -22.9745 -10.3946 -84.3961
rradius 24.3359
rwrist 32.9495
rhand -19.415 -26.4174
rfingers 7.12502
rthumb 6.90455 -56.2848
lclavicle 4.91992e-015 -1.13307e-014
lhumerus -19.8678 -10.247 92.2493
lradius 21.0015
lwrist 4.13481
lhand -25.032 -4.0957
lfingers 7.12502
lthumb 1.48061 25.8789
rfemur -11.3044 -3.40909 19.1445
rtibia 17.9786
rfoot -12.2165 -3.10459
rtoes 12.3356
lfemur -8.38114 5.79086 -17.6277
ltibia 13.5184
lfoot -9.1409 5.88228
ltoes 1.04378
47
root 0.548496 17.6527 -14.0584 6.54364 -0.309067 -1.06191
lowerback -4.95795 -0.443523 -0.168001
upperback 3.12084 -0.655407 1.33676
thorax 6.04504 -0.361096 1.41922
lowerneck -12.2757 0.500135 -2.08197
upperneck 36.0588 1.09152 0.639971
head 14.4211 0.26829 0.800987
rclavicle 4.57205e-015 -1.0138e-014
rhumerus -22.9675 -10.4367 -84.4059
rradius 24.3288
rwrist 32.9638
rhand -19.451 -26.4275
rfingers 7.12502
rthumb 6.86977 -56.2961
lclavicle 4.57205e-015 -1.0138e-014
lhumerus -19.8212 -10.3183 92.272
lradius 21.0518
lwrist 4.18505
lhand -25.0352 -4.09217
lfingers 7.12502
lthumb 1.47759 25.8825
rfemur -11.2929 -3.42017 19.1489
rtibia 17.9749
rfoot -12.2183 -3.11218
rtoes 12.3332
lfemur -8.38161 5.78476 -17.6224
ltibia 13.5286
lfoot -9.14646 5.87287
ltoes 1.04757
48
root 0.547684 17.6526 -14.0583 6.53846 -0.292183 -1.06658
lowerback -4.96655 -0.451486 -0.170237
upperback 3.11626 -0.666159 1.34163
thorax 6.04555 -0.366592 1.42442
lowerneck -12.2618 0.504761 -2.08343
upperneck 36.0591 1.09947 0.637093
head 14.4179 0.271127 0.801195
rclavicle -1.68967e-015 9.74045e-015
rhumerus -22.964 -10.4695 -84.4166
rradius 24.3232
rwrist 32.9729
rhand -19.479 -26.4404
rfingers 7.12502
rthumb 6.84281 -56.3098
lclavicle -1.68967e-015 9.74045e-015
lhumerus -19.7768 -10.3838 92.2912
lradius 21.092
lwrist 4.22743
lhand -25.0383 -4.08373
lfingers 7.12502
lthumb 1.47458 25.8909
rfemur -11.2821 -3.42628 19.1577
rtibia 17.9703
rfoot -12.2189 -3.12415
rtoes 12.3275
lfemur -8.38425 5.78154 -17.6128
ltibia 13.5404
lfoot -9.15226 5.86165
ltoes 1.04549
